<svg width="127" height="28" viewBox="0 0 127 28" fill="none" xmlns="http://www.w3.org/2000/svg">
<path d="M7.156 1.44L13.168 20.088L19.108 1.44H25.336L16.048 27H10.252L0.892 1.44H7.156ZM23.9053 21.348C23.9053 20.1 24.2533 19.008 24.9493 18.072C25.6453 17.136 26.6053 16.404 27.8293 15.876C29.0533 15.324 30.4573 15.048 32.0413 15.048C32.8093 15.048 33.5653 15.12 34.3093 15.264C35.0533 15.384 35.7013 15.564 36.2533 15.804V14.976C36.2533 13.944 35.9413 13.152 35.3173 12.6C34.6933 12.048 33.7453 11.772 32.4733 11.772C31.4173 11.772 30.4213 11.952 29.4853 12.312C28.5733 12.672 27.6013 13.188 26.5693 13.86L24.8413 10.188C26.0893 9.372 27.3853 8.76 28.7293 8.352C30.0973 7.944 31.5373 7.74 33.0493 7.74C35.8813 7.74 38.0773 8.424 39.6373 9.792C41.2213 11.136 42.0133 13.092 42.0133 15.66V20.592C42.0133 21.168 42.0973 21.576 42.2653 21.816C42.4573 22.032 42.7813 22.164 43.2373 22.212V27C42.7573 27.096 42.3013 27.168 41.8693 27.216C41.4613 27.264 41.1013 27.288 40.7893 27.288C39.7093 27.288 38.8813 27.072 38.3053 26.64C37.7533 26.208 37.4053 25.62 37.2613 24.876L37.1533 24.048C36.3133 25.128 35.3053 25.956 34.1293 26.532C32.9773 27.084 31.7653 27.36 30.4933 27.36C29.2453 27.36 28.1173 27.096 27.1093 26.568C26.1253 26.04 25.3453 25.32 24.7693 24.408C24.1933 23.496 23.9053 22.476 23.9053 21.348ZM35.3533 22.068C35.6173 21.852 35.8333 21.612 36.0013 21.348C36.1693 21.084 36.2533 20.832 36.2533 20.592V18.9C35.7733 18.708 35.2333 18.564 34.6333 18.468C34.0573 18.348 33.5173 18.288 33.0133 18.288C31.9573 18.288 31.0813 18.528 30.3853 19.008C29.6893 19.464 29.3413 20.076 29.3413 20.844C29.3413 21.276 29.4613 21.672 29.7013 22.032C29.9413 22.392 30.2653 22.68 30.6733 22.896C31.1053 23.112 31.6093 23.22 32.1853 23.22C32.7613 23.22 33.3373 23.112 33.9133 22.896C34.4893 22.68 34.9693 22.404 35.3533 22.068ZM46.115 0.719999H51.875V20.268C51.875 21.06 52.019 21.624 52.307 21.96C52.595 22.296 53.003 22.464 53.531 22.464C53.891 22.464 54.251 22.416 54.611 22.32C54.995 22.2 55.331 22.068 55.619 21.924L56.375 26.244C55.655 26.58 54.827 26.844 53.891 27.036C52.955 27.228 52.079 27.324 51.263 27.324C49.631 27.324 48.359 26.892 47.447 26.028C46.559 25.14 46.115 23.892 46.115 22.284V0.719999ZM58.2456 27V8.1H64.0056V27H58.2456ZM58.2456 5.94V0.719999H64.0056V5.94H58.2456ZM66.7608 21.348C66.7608 20.1 67.1088 19.008 67.8048 18.072C68.5008 17.136 69.4608 16.404 70.6848 15.876C71.9088 15.324 73.3128 15.048 74.8968 15.048C75.6648 15.048 76.4208 15.12 77.1648 15.264C77.9088 15.384 78.5568 15.564 79.1088 15.804V14.976C79.1088 13.944 78.7968 13.152 78.1728 12.6C77.5488 12.048 76.6008 11.772 75.3288 11.772C74.2728 11.772 73.2768 11.952 72.3408 12.312C71.4288 12.672 70.4568 13.188 69.4248 13.86L67.6968 10.188C68.9448 9.372 70.2408 8.76 71.5848 8.352C72.9528 7.944 74.3928 7.74 75.9048 7.74C78.7368 7.74 80.9328 8.424 82.4928 9.792C84.0768 11.136 84.8688 13.092 84.8688 15.66V20.592C84.8688 21.168 84.9528 21.576 85.1208 21.816C85.3128 22.032 85.6368 22.164 86.0928 22.212V27C85.6128 27.096 85.1568 27.168 84.7248 27.216C84.3168 27.264 83.9568 27.288 83.6448 27.288C82.5648 27.288 81.7368 27.072 81.1608 26.64C80.6088 26.208 80.2608 25.62 80.1168 24.876L80.0088 24.048C79.1688 25.128 78.1608 25.956 76.9848 26.532C75.8328 27.084 74.6208 27.36 73.3488 27.36C72.1008 27.36 70.9728 27.096 69.9648 26.568C68.9808 26.04 68.2008 25.32 67.6248 24.408C67.0488 23.496 66.7608 22.476 66.7608 21.348ZM78.2088 22.068C78.4728 21.852 78.6888 21.612 78.8568 21.348C79.0248 21.084 79.1088 20.832 79.1088 20.592V18.9C78.6288 18.708 78.0888 18.564 77.4888 18.468C76.9128 18.348 76.3728 18.288 75.8688 18.288C74.8128 18.288 73.9368 18.528 73.2408 19.008C72.5448 19.464 72.1968 20.076 72.1968 20.844C72.1968 21.276 72.3168 21.672 72.5568 22.032C72.7968 22.392 73.1208 22.68 73.5288 22.896C73.9608 23.112 74.4648 23.22 75.0408 23.22C75.6168 23.22 76.1928 23.112 76.7688 22.896C77.3448 22.68 77.8248 22.404 78.2088 22.068ZM107.259 27H101.499V16.38C101.499 15.132 101.259 14.232 100.779 13.68C100.323 13.104 99.7105 12.816 98.9425 12.816C98.4145 12.816 97.8745 12.96 97.3225 13.248C96.7705 13.536 96.2665 13.932 95.8105 14.436C95.3785 14.94 95.0425 15.516 94.8025 16.164V27H89.0425V8.1H94.2265V11.268C94.7065 10.524 95.3065 9.888 96.0265 9.36C96.7465 8.832 97.5745 8.436 98.5105 8.172C99.4465 7.884 100.467 7.74 101.571 7.74C102.795 7.74 103.779 7.968 104.523 8.424C105.291 8.856 105.867 9.432 106.251 10.152C106.659 10.872 106.923 11.652 107.043 12.492C107.187 13.308 107.259 14.112 107.259 14.904V27ZM118.321 27.36C116.713 27.36 115.141 27.096 113.605 26.568C112.069 26.04 110.773 25.26 109.717 24.228L111.697 20.592C112.849 21.432 113.965 22.068 115.045 22.5C116.149 22.932 117.181 23.148 118.141 23.148C118.885 23.148 119.461 23.028 119.869 22.788C120.277 22.548 120.481 22.176 120.481 21.672C120.481 21.312 120.361 21.036 120.121 20.844C119.881 20.628 119.509 20.436 119.005 20.268C118.525 20.1 117.925 19.92 117.205 19.728C115.765 19.248 114.565 18.78 113.605 18.324C112.645 17.868 111.925 17.316 111.445 16.668C110.965 15.996 110.725 15.132 110.725 14.076C110.725 12.804 111.037 11.7 111.661 10.764C112.309 9.804 113.221 9.06 114.397 8.532C115.573 8.004 116.977 7.74 118.609 7.74C119.905 7.74 121.165 7.944 122.389 8.352C123.637 8.76 124.801 9.444 125.881 10.404L123.649 14.004C122.569 13.26 121.609 12.72 120.769 12.384C119.929 12.048 119.113 11.88 118.321 11.88C117.913 11.88 117.541 11.928 117.205 12.024C116.869 12.12 116.593 12.288 116.377 12.528C116.185 12.744 116.089 13.032 116.089 13.392C116.089 13.752 116.185 14.04 116.377 14.256C116.593 14.472 116.917 14.664 117.349 14.832C117.805 14.976 118.369 15.156 119.041 15.372C120.601 15.828 121.897 16.296 122.929 16.776C123.961 17.232 124.729 17.808 125.233 18.504C125.761 19.176 126.025 20.076 126.025 21.204C126.025 23.124 125.329 24.636 123.937 25.74C122.569 26.82 120.697 27.36 118.321 27.36Z" fill="black"/>
</svg>
