<svg width="1920" height="1151" viewBox="0 0 1920 1151" fill="none" xmlns="http://www.w3.org/2000/svg">
<g clip-path="url(#clip0_52_262)">
<rect width="1920" height="1151" fill="url(#paint0_linear_52_262)"/>
<path d="M-781.5 1227C-781.5 830.183 -459.817 508.5 -62.9999 508.5C333.817 508.5 655.5 830.183 655.5 1227C655.5 1623.82 333.817 1945.5 -63.0001 1945.5C-459.817 1945.5 -781.5 1623.82 -781.5 1227Z" stroke="black"/>
<path d="M-768.5 1290.5C-768.5 946.427 -489.35 667.5 -145 667.5C199.35 667.5 478.5 946.427 478.5 1290.5C478.5 1634.57 199.35 1913.5 -145 1913.5C-489.35 1913.5 -768.5 1634.57 -768.5 1290.5Z" stroke="black"/>
<circle cx="1807.5" cy="-162.5" r="801" stroke="black"/>
<path d="M2593.5 -232.5C2593.5 151.338 2282.56 462.5 1899 462.5C1515.44 462.5 1204.5 151.338 1204.5 -232.5C1204.5 -616.338 1515.44 -927.5 1899 -927.5C2282.56 -927.5 2593.5 -616.338 2593.5 -232.5Z" stroke="black"/>
<path d="M726.308 679.08L751.024 602.416L775.444 679.08H801.048L762.864 574H739.036L700.556 679.08H726.308ZM795.166 597.236C795.166 602.367 796.597 606.856 799.458 610.704C802.319 614.552 806.266 617.561 811.298 619.732C816.33 622.001 822.102 623.136 828.614 623.136C831.771 623.136 834.879 622.84 837.938 622.248C840.997 621.755 843.661 621.015 845.93 620.028V623.432C845.93 627.675 844.647 630.931 842.082 633.2C839.517 635.469 835.619 636.604 830.39 636.604C826.049 636.604 821.954 635.864 818.106 634.384C814.357 632.904 810.361 630.783 806.118 628.02L799.014 643.116C804.145 646.471 809.473 648.987 814.998 650.664C820.622 652.341 826.542 653.18 832.758 653.18C844.401 653.18 853.429 650.368 859.842 644.744C866.354 639.219 869.61 631.177 869.61 620.62V600.344C869.61 597.976 869.955 596.299 870.646 595.312C871.435 594.424 872.767 593.881 874.642 593.684V574C872.669 573.605 870.794 573.309 869.018 573.112C867.341 572.915 865.861 572.816 864.578 572.816C860.138 572.816 856.734 573.704 854.366 575.48C852.097 577.256 850.666 579.673 850.074 582.732L849.63 586.136C846.177 581.696 842.033 578.292 837.198 575.924C832.462 573.655 827.479 572.52 822.25 572.52C817.119 572.52 812.482 573.605 808.338 575.776C804.293 577.947 801.086 580.907 798.718 584.656C796.35 588.405 795.166 592.599 795.166 597.236ZM842.23 594.276C843.315 595.164 844.203 596.151 844.894 597.236C845.585 598.321 845.93 599.357 845.93 600.344V607.3C843.957 608.089 841.737 608.681 839.27 609.076C836.902 609.569 834.682 609.816 832.61 609.816C828.269 609.816 824.667 608.829 821.806 606.856C818.945 604.981 817.514 602.465 817.514 599.308C817.514 597.532 818.007 595.904 818.994 594.424C819.981 592.944 821.313 591.76 822.99 590.872C824.766 589.984 826.838 589.54 829.206 589.54C831.574 589.54 833.942 589.984 836.31 590.872C838.678 591.76 840.651 592.895 842.23 594.276ZM886.473 682.04H910.153V601.676C910.153 598.42 910.745 596.101 911.929 594.72C913.113 593.339 914.79 592.648 916.961 592.648C918.441 592.648 919.921 592.845 921.401 593.24C922.98 593.733 924.361 594.276 925.545 594.868L928.653 577.108C925.693 575.727 922.289 574.641 918.441 573.852C914.593 573.063 910.992 572.668 907.637 572.668C900.928 572.668 895.698 574.444 891.949 577.996C888.298 581.647 886.473 586.777 886.473 593.388V682.04ZM936.343 574V651.7H960.023V574H936.343ZM936.343 660.58V682.04H960.023V660.58H936.343ZM971.35 597.236C971.35 602.367 972.78 606.856 975.642 610.704C978.503 614.552 982.45 617.561 987.482 619.732C992.514 622.001 998.286 623.136 1004.8 623.136C1007.96 623.136 1011.06 622.84 1014.12 622.248C1017.18 621.755 1019.84 621.015 1022.11 620.028V623.432C1022.11 627.675 1020.83 630.931 1018.27 633.2C1015.7 635.469 1011.8 636.604 1006.57 636.604C1002.23 636.604 998.138 635.864 994.29 634.384C990.54 632.904 986.544 630.783 982.302 628.02L975.198 643.116C980.328 646.471 985.656 648.987 991.182 650.664C996.806 652.341 1002.73 653.18 1008.94 653.18C1020.58 653.18 1029.61 650.368 1036.03 644.744C1042.54 639.219 1045.79 631.177 1045.79 620.62V600.344C1045.79 597.976 1046.14 596.299 1046.83 595.312C1047.62 594.424 1048.95 593.881 1050.83 593.684V574C1048.85 573.605 1046.98 573.309 1045.2 573.112C1043.52 572.915 1042.04 572.816 1040.76 572.816C1036.32 572.816 1032.92 573.704 1030.55 575.48C1028.28 577.256 1026.85 579.673 1026.26 582.732L1025.81 586.136C1022.36 581.696 1018.22 578.292 1013.38 575.924C1008.65 573.655 1003.66 572.52 998.434 572.52C993.303 572.52 988.666 573.605 984.522 575.776C980.476 577.947 977.27 580.907 974.902 584.656C972.534 588.405 971.35 592.599 971.35 597.236ZM1018.41 594.276C1019.5 595.164 1020.39 596.151 1021.08 597.236C1021.77 598.321 1022.11 599.357 1022.11 600.344V607.3C1020.14 608.089 1017.92 608.681 1015.45 609.076C1013.09 609.569 1010.87 609.816 1008.79 609.816C1004.45 609.816 1000.85 608.829 997.99 606.856C995.128 604.981 993.698 602.465 993.698 599.308C993.698 597.532 994.191 595.904 995.178 594.424C996.164 592.944 997.496 591.76 999.174 590.872C1000.95 589.984 1003.02 589.54 1005.39 589.54C1007.76 589.54 1010.13 589.984 1012.49 590.872C1014.86 591.76 1016.84 592.895 1018.41 594.276ZM1137.84 574H1114.16V617.66C1114.16 622.791 1113.17 626.491 1111.2 628.76C1109.33 631.128 1106.81 632.312 1103.65 632.312C1101.48 632.312 1099.26 631.72 1096.99 630.536C1094.72 629.352 1092.65 627.724 1090.78 625.652C1089 623.58 1087.62 621.212 1086.63 618.548V574H1062.95V651.7H1084.26V638.676C1086.24 641.735 1088.7 644.349 1091.66 646.52C1094.62 648.691 1098.03 650.319 1101.88 651.404C1105.72 652.588 1109.92 653.18 1114.46 653.18C1119.49 653.18 1123.53 652.243 1126.59 650.368C1129.75 648.592 1132.12 646.224 1133.7 643.264C1135.37 640.304 1136.46 637.097 1136.95 633.644C1137.54 630.289 1137.84 626.984 1137.84 623.728V574ZM1183.32 572.52C1176.71 572.52 1170.25 573.605 1163.93 575.776C1157.62 577.947 1152.29 581.153 1147.95 585.396L1156.09 600.344C1160.83 596.891 1165.41 594.276 1169.85 592.5C1174.39 590.724 1178.63 589.836 1182.58 589.836C1185.64 589.836 1188.01 590.329 1189.69 591.316C1191.36 592.303 1192.2 593.832 1192.2 595.904C1192.2 597.384 1191.71 598.519 1190.72 599.308C1189.73 600.196 1188.21 600.985 1186.13 601.676C1184.16 602.367 1181.69 603.107 1178.73 603.896C1172.81 605.869 1167.88 607.793 1163.93 609.668C1159.99 611.543 1157.03 613.812 1155.05 616.476C1153.08 619.239 1152.09 622.791 1152.09 627.132C1152.09 632.361 1153.38 636.9 1155.94 640.748C1158.61 644.695 1162.35 647.753 1167.19 649.924C1172.02 652.095 1177.8 653.18 1184.51 653.18C1189.83 653.18 1195.01 652.341 1200.05 650.664C1205.18 648.987 1209.96 646.175 1214.4 642.228L1205.23 627.428C1200.79 630.487 1196.84 632.707 1193.39 634.088C1189.93 635.469 1186.58 636.16 1183.32 636.16C1181.64 636.16 1180.11 635.963 1178.73 635.568C1177.35 635.173 1176.22 634.483 1175.33 633.496C1174.54 632.608 1174.15 631.424 1174.15 629.944C1174.15 628.464 1174.54 627.28 1175.33 626.392C1176.22 625.504 1177.55 624.715 1179.33 624.024C1181.2 623.432 1183.52 622.692 1186.28 621.804C1192.69 619.929 1198.02 618.005 1202.27 616.032C1206.51 614.157 1209.67 611.789 1211.74 608.928C1213.91 606.165 1214.99 602.465 1214.99 597.828C1214.99 589.935 1212.13 583.719 1206.41 579.18C1200.79 574.74 1193.09 572.52 1183.32 572.52Z" fill="url(#paint1_linear_52_262)"/>
<path d="M726.308 471.92L751.024 548.584L775.444 471.92H801.048L762.864 577H739.036L700.556 471.92H726.308ZM795.166 553.764C795.166 548.633 796.597 544.144 799.458 540.296C802.319 536.448 806.266 533.439 811.298 531.268C816.33 528.999 822.102 527.864 828.614 527.864C831.771 527.864 834.879 528.16 837.938 528.752C840.997 529.245 843.661 529.985 845.93 530.972V527.568C845.93 523.325 844.647 520.069 842.082 517.8C839.517 515.531 835.619 514.396 830.39 514.396C826.049 514.396 821.954 515.136 818.106 516.616C814.357 518.096 810.361 520.217 806.118 522.98L799.014 507.884C804.145 504.529 809.473 502.013 814.998 500.336C820.622 498.659 826.542 497.82 832.758 497.82C844.401 497.82 853.429 500.632 859.842 506.256C866.354 511.781 869.61 519.823 869.61 530.38V550.656C869.61 553.024 869.955 554.701 870.646 555.688C871.435 556.576 872.767 557.119 874.642 557.316V577C872.669 577.395 870.794 577.691 869.018 577.888C867.341 578.085 865.861 578.184 864.578 578.184C860.138 578.184 856.734 577.296 854.366 575.52C852.097 573.744 850.666 571.327 850.074 568.268L849.63 564.864C846.177 569.304 842.033 572.708 837.198 575.076C832.462 577.345 827.479 578.48 822.25 578.48C817.119 578.48 812.482 577.395 808.338 575.224C804.293 573.053 801.086 570.093 798.718 566.344C796.35 562.595 795.166 558.401 795.166 553.764ZM842.23 556.724C843.315 555.836 844.203 554.849 844.894 553.764C845.585 552.679 845.93 551.643 845.93 550.656V543.7C843.957 542.911 841.737 542.319 839.27 541.924C836.902 541.431 834.682 541.184 832.61 541.184C828.269 541.184 824.667 542.171 821.806 544.144C818.945 546.019 817.514 548.535 817.514 551.692C817.514 553.468 818.007 555.096 818.994 556.576C819.981 558.056 821.313 559.24 822.99 560.128C824.766 561.016 826.838 561.46 829.206 561.46C831.574 561.46 833.942 561.016 836.31 560.128C838.678 559.24 840.651 558.105 842.23 556.724ZM886.473 468.96H910.153V549.324C910.153 552.58 910.745 554.899 911.929 556.28C913.113 557.661 914.79 558.352 916.961 558.352C918.441 558.352 919.921 558.155 921.401 557.76C922.98 557.267 924.361 556.724 925.545 556.132L928.653 573.892C925.693 575.273 922.289 576.359 918.441 577.148C914.593 577.937 910.992 578.332 907.637 578.332C900.928 578.332 895.698 576.556 891.949 573.004C888.298 569.353 886.473 564.223 886.473 557.612V468.96ZM936.343 577V499.3H960.023V577H936.343ZM936.343 490.42V468.96H960.023V490.42H936.343ZM971.35 553.764C971.35 548.633 972.78 544.144 975.642 540.296C978.503 536.448 982.45 533.439 987.482 531.268C992.514 528.999 998.286 527.864 1004.8 527.864C1007.96 527.864 1011.06 528.16 1014.12 528.752C1017.18 529.245 1019.84 529.985 1022.11 530.972V527.568C1022.11 523.325 1020.83 520.069 1018.27 517.8C1015.7 515.531 1011.8 514.396 1006.57 514.396C1002.23 514.396 998.138 515.136 994.29 516.616C990.54 518.096 986.544 520.217 982.302 522.98L975.198 507.884C980.328 504.529 985.656 502.013 991.182 500.336C996.806 498.659 1002.73 497.82 1008.94 497.82C1020.58 497.82 1029.61 500.632 1036.03 506.256C1042.54 511.781 1045.79 519.823 1045.79 530.38V550.656C1045.79 553.024 1046.14 554.701 1046.83 555.688C1047.62 556.576 1048.95 557.119 1050.83 557.316V577C1048.85 577.395 1046.98 577.691 1045.2 577.888C1043.52 578.085 1042.04 578.184 1040.76 578.184C1036.32 578.184 1032.92 577.296 1030.55 575.52C1028.28 573.744 1026.85 571.327 1026.26 568.268L1025.81 564.864C1022.36 569.304 1018.22 572.708 1013.38 575.076C1008.65 577.345 1003.66 578.48 998.434 578.48C993.303 578.48 988.666 577.395 984.522 575.224C980.476 573.053 977.27 570.093 974.902 566.344C972.534 562.595 971.35 558.401 971.35 553.764ZM1018.41 556.724C1019.5 555.836 1020.39 554.849 1021.08 553.764C1021.77 552.679 1022.11 551.643 1022.11 550.656V543.7C1020.14 542.911 1017.92 542.319 1015.45 541.924C1013.09 541.431 1010.87 541.184 1008.79 541.184C1004.45 541.184 1000.85 542.171 997.99 544.144C995.128 546.019 993.698 548.535 993.698 551.692C993.698 553.468 994.191 555.096 995.178 556.576C996.164 558.056 997.496 559.24 999.174 560.128C1000.95 561.016 1003.02 561.46 1005.39 561.46C1007.76 561.46 1010.13 561.016 1012.49 560.128C1014.86 559.24 1016.84 558.105 1018.41 556.724ZM1137.84 577H1114.16V533.34C1114.16 528.209 1113.17 524.509 1111.2 522.24C1109.33 519.872 1106.81 518.688 1103.65 518.688C1101.48 518.688 1099.26 519.28 1096.99 520.464C1094.72 521.648 1092.65 523.276 1090.78 525.348C1089 527.42 1087.62 529.788 1086.63 532.452V577H1062.95V499.3H1084.26V512.324C1086.24 509.265 1088.7 506.651 1091.66 504.48C1094.62 502.309 1098.03 500.681 1101.88 499.596C1105.72 498.412 1109.92 497.82 1114.46 497.82C1119.49 497.82 1123.53 498.757 1126.59 500.632C1129.75 502.408 1132.12 504.776 1133.7 507.736C1135.37 510.696 1136.46 513.903 1136.95 517.356C1137.54 520.711 1137.84 524.016 1137.84 527.272V577ZM1183.32 578.48C1176.71 578.48 1170.25 577.395 1163.93 575.224C1157.62 573.053 1152.29 569.847 1147.95 565.604L1156.09 550.656C1160.83 554.109 1165.41 556.724 1169.85 558.5C1174.39 560.276 1178.63 561.164 1182.58 561.164C1185.64 561.164 1188.01 560.671 1189.69 559.684C1191.36 558.697 1192.2 557.168 1192.2 555.096C1192.2 553.616 1191.71 552.481 1190.72 551.692C1189.73 550.804 1188.21 550.015 1186.13 549.324C1184.16 548.633 1181.69 547.893 1178.73 547.104C1172.81 545.131 1167.88 543.207 1163.93 541.332C1159.99 539.457 1157.03 537.188 1155.05 534.524C1153.08 531.761 1152.09 528.209 1152.09 523.868C1152.09 518.639 1153.38 514.1 1155.94 510.252C1158.61 506.305 1162.35 503.247 1167.19 501.076C1172.02 498.905 1177.8 497.82 1184.51 497.82C1189.83 497.82 1195.01 498.659 1200.05 500.336C1205.18 502.013 1209.96 504.825 1214.4 508.772L1205.23 523.572C1200.79 520.513 1196.84 518.293 1193.39 516.912C1189.93 515.531 1186.58 514.84 1183.32 514.84C1181.64 514.84 1180.11 515.037 1178.73 515.432C1177.35 515.827 1176.22 516.517 1175.33 517.504C1174.54 518.392 1174.15 519.576 1174.15 521.056C1174.15 522.536 1174.54 523.72 1175.33 524.608C1176.22 525.496 1177.55 526.285 1179.33 526.976C1181.2 527.568 1183.52 528.308 1186.28 529.196C1192.69 531.071 1198.02 532.995 1202.27 534.968C1206.51 536.843 1209.67 539.211 1211.74 542.072C1213.91 544.835 1214.99 548.535 1214.99 553.172C1214.99 561.065 1212.13 567.281 1206.41 571.82C1200.79 576.26 1193.09 578.48 1183.32 578.48Z" fill="black"/>
<path d="M923.312 1117.06C922.891 1117.06 922.504 1116.98 922.152 1116.84C921.8 1116.7 921.491 1116.49 921.224 1116.23C920.963 1115.97 920.757 1115.66 920.608 1115.31C920.464 1114.96 920.392 1114.58 920.392 1114.16C920.392 1113.75 920.464 1113.37 920.608 1113.02C920.757 1112.66 920.963 1112.36 921.224 1112.1C921.491 1111.84 921.8 1111.64 922.152 1111.5C922.504 1111.35 922.891 1111.28 923.312 1111.28C923.733 1111.28 924.12 1111.35 924.472 1111.5C924.829 1111.64 925.139 1111.84 925.4 1112.1C925.667 1112.36 925.872 1112.66 926.016 1113.02C926.165 1113.37 926.24 1113.75 926.24 1114.16C926.24 1114.58 926.165 1114.96 926.016 1115.31C925.872 1115.66 925.667 1115.97 925.4 1116.23C925.139 1116.49 924.829 1116.7 924.472 1116.84C924.12 1116.98 923.733 1117.06 923.312 1117.06ZM923.312 1116.81C923.691 1116.81 924.04 1116.75 924.36 1116.62C924.685 1116.5 924.968 1116.31 925.208 1116.08C925.448 1115.85 925.637 1115.57 925.776 1115.25C925.915 1114.92 925.984 1114.57 925.984 1114.18C925.984 1113.8 925.915 1113.45 925.776 1113.13C925.643 1112.8 925.456 1112.52 925.216 1112.28C924.981 1112.04 924.701 1111.86 924.376 1111.73C924.051 1111.59 923.696 1111.53 923.312 1111.53C922.933 1111.53 922.581 1111.59 922.256 1111.73C921.931 1111.86 921.648 1112.04 921.408 1112.28C921.168 1112.52 920.981 1112.8 920.848 1113.12C920.715 1113.44 920.648 1113.79 920.648 1114.17C920.648 1114.54 920.715 1114.89 920.848 1115.21C920.981 1115.53 921.168 1115.81 921.408 1116.06C921.648 1116.3 921.931 1116.48 922.256 1116.62C922.581 1116.74 922.933 1116.81 923.312 1116.81ZM923.368 1116.01C923.139 1116.01 922.915 1115.97 922.696 1115.88C922.483 1115.79 922.288 1115.67 922.112 1115.51C921.941 1115.35 921.803 1115.16 921.696 1114.93C921.595 1114.7 921.544 1114.44 921.544 1114.16C921.544 1113.94 921.579 1113.72 921.648 1113.5C921.723 1113.28 921.832 1113.08 921.976 1112.9C922.12 1112.71 922.304 1112.57 922.528 1112.46C922.752 1112.35 923.016 1112.3 923.32 1112.3C923.651 1112.3 923.949 1112.37 924.216 1112.51C924.483 1112.66 924.672 1112.87 924.784 1113.15L924.4 1113.28C924.325 1113.1 924.224 1112.97 924.096 1112.89C923.968 1112.8 923.832 1112.74 923.688 1112.7C923.549 1112.67 923.427 1112.66 923.32 1112.66C923.085 1112.66 922.883 1112.7 922.712 1112.79C922.541 1112.88 922.4 1112.99 922.288 1113.14C922.176 1113.29 922.091 1113.45 922.032 1113.63C921.979 1113.81 921.952 1113.98 921.952 1114.16C921.952 1114.4 921.995 1114.61 922.08 1114.8C922.165 1114.98 922.277 1115.14 922.416 1115.26C922.555 1115.39 922.704 1115.48 922.864 1115.55C923.029 1115.62 923.189 1115.65 923.344 1115.65C923.483 1115.65 923.627 1115.62 923.776 1115.57C923.925 1115.51 924.061 1115.44 924.184 1115.34C924.312 1115.25 924.405 1115.13 924.464 1114.99L924.848 1115.1C924.811 1115.22 924.725 1115.35 924.592 1115.5C924.459 1115.63 924.288 1115.75 924.08 1115.86C923.872 1115.96 923.635 1116.01 923.368 1116.01ZM928.966 1111.32L931.126 1116.49L933.286 1111.32H933.718L931.326 1117H930.934L928.534 1111.32H928.966ZM935.895 1111.32H936.247L938.647 1117H938.215L937.423 1115.13H934.711L933.919 1117H933.479L935.895 1111.32ZM937.311 1114.79L936.071 1111.82L934.807 1114.79H937.311ZM939.51 1117V1111.32H939.918V1116.63H943.31V1117H939.51ZM944.158 1117V1111.32H944.566V1117H944.158ZM947.841 1111.32H948.193L950.593 1117H950.161L949.369 1115.13H946.657L945.865 1117H945.425L947.841 1111.32ZM949.257 1114.79L948.017 1111.82L946.753 1114.79H949.257ZM954.673 1112.26C954.582 1112.16 954.481 1112.07 954.369 1112C954.257 1111.92 954.137 1111.86 954.009 1111.81C953.881 1111.75 953.742 1111.71 953.593 1111.69C953.444 1111.66 953.284 1111.65 953.113 1111.65C952.558 1111.65 952.153 1111.75 951.897 1111.97C951.646 1112.18 951.521 1112.46 951.521 1112.82C951.521 1113.06 951.577 1113.25 951.689 1113.39C951.806 1113.53 951.988 1113.64 952.233 1113.73C952.478 1113.81 952.796 1113.9 953.185 1113.98C953.596 1114.06 953.95 1114.16 954.249 1114.28C954.548 1114.39 954.777 1114.55 954.937 1114.74C955.102 1114.94 955.185 1115.21 955.185 1115.54C955.185 1115.79 955.137 1116.02 955.041 1116.21C954.945 1116.39 954.806 1116.55 954.625 1116.67C954.444 1116.79 954.228 1116.89 953.977 1116.95C953.732 1117.02 953.457 1117.05 953.153 1117.05C952.86 1117.05 952.58 1117.02 952.313 1116.95C952.046 1116.89 951.796 1116.79 951.561 1116.67C951.326 1116.55 951.108 1116.39 950.905 1116.2L951.121 1115.87C951.238 1116 951.369 1116.11 951.513 1116.22C951.662 1116.31 951.822 1116.39 951.993 1116.46C952.169 1116.53 952.356 1116.59 952.553 1116.63C952.75 1116.67 952.956 1116.69 953.169 1116.69C953.665 1116.69 954.052 1116.6 954.329 1116.42C954.612 1116.23 954.753 1115.95 954.753 1115.59C954.753 1115.34 954.689 1115.14 954.561 1114.98C954.433 1114.83 954.236 1114.7 953.969 1114.61C953.702 1114.51 953.369 1114.41 952.969 1114.33C952.569 1114.24 952.228 1114.15 951.945 1114.04C951.668 1113.93 951.457 1113.79 951.313 1113.61C951.174 1113.43 951.105 1113.18 951.105 1112.87C951.105 1112.53 951.188 1112.24 951.353 1112.01C951.524 1111.77 951.761 1111.59 952.065 1111.46C952.369 1111.34 952.718 1111.28 953.113 1111.28C953.358 1111.28 953.585 1111.3 953.793 1111.35C954.006 1111.4 954.201 1111.47 954.377 1111.58C954.558 1111.67 954.726 1111.79 954.881 1111.94L954.673 1112.26ZM961.856 1111.32H962.208L964.608 1117H964.176L963.384 1115.13H960.672L959.88 1117H959.44L961.856 1111.32ZM963.272 1114.79L962.032 1111.82L960.768 1114.79H963.272ZM965.471 1117V1111.32H965.879V1116.63H969.271V1117H965.471ZM970.119 1117V1111.32H970.527V1116.63H973.919V1117H970.119ZM976.596 1117V1111.32H978.956C979.201 1111.32 979.422 1111.37 979.62 1111.47C979.822 1111.57 979.996 1111.71 980.14 1111.88C980.289 1112.05 980.404 1112.23 980.484 1112.44C980.569 1112.65 980.612 1112.86 980.612 1113.08C980.612 1113.36 980.556 1113.63 980.444 1113.87C980.332 1114.12 980.174 1114.32 979.972 1114.49C979.774 1114.65 979.542 1114.75 979.276 1114.79L980.692 1117H980.22L978.844 1114.86H977.004V1117H976.596ZM977.004 1114.48H978.996C979.241 1114.48 979.454 1114.41 979.636 1114.28C979.817 1114.15 979.956 1113.97 980.052 1113.76C980.153 1113.55 980.204 1113.32 980.204 1113.08C980.204 1112.83 980.145 1112.61 980.028 1112.4C979.916 1112.19 979.764 1112.02 979.572 1111.89C979.385 1111.75 979.174 1111.69 978.94 1111.69H977.004V1114.48ZM981.791 1117V1111.32H982.199V1117H981.791ZM985.961 1117.04C985.577 1117.04 985.223 1116.96 984.897 1116.79C984.572 1116.63 984.289 1116.41 984.049 1116.14C983.809 1115.86 983.623 1115.55 983.489 1115.21C983.361 1114.86 983.297 1114.51 983.297 1114.15C983.297 1113.78 983.361 1113.42 983.489 1113.08C983.617 1112.73 983.799 1112.43 984.033 1112.16C984.268 1111.89 984.545 1111.67 984.865 1111.52C985.185 1111.36 985.535 1111.28 985.913 1111.28C986.479 1111.28 986.935 1111.4 987.281 1111.63C987.633 1111.86 987.9 1112.16 988.081 1112.52L987.745 1112.72C987.553 1112.35 987.297 1112.08 986.977 1111.91C986.663 1111.74 986.305 1111.66 985.905 1111.66C985.569 1111.66 985.265 1111.73 984.993 1111.87C984.721 1112.01 984.489 1112.2 984.297 1112.44C984.105 1112.67 983.959 1112.94 983.857 1113.24C983.756 1113.54 983.705 1113.85 983.705 1114.16C983.705 1114.5 983.764 1114.81 983.881 1115.11C983.999 1115.41 984.161 1115.68 984.369 1115.91C984.577 1116.15 984.82 1116.33 985.097 1116.46C985.375 1116.6 985.671 1116.66 985.985 1116.66C986.353 1116.66 986.7 1116.58 987.025 1116.4C987.351 1116.22 987.663 1115.94 987.961 1115.55V1116.01C987.396 1116.7 986.729 1117.04 985.961 1117.04ZM987.873 1114.57H986.585V1114.24H988.225V1117H987.873V1114.57ZM993.824 1111.32V1117H993.416V1114.28H989.832V1117H989.424V1111.32H989.832V1113.91H993.416V1111.32H993.824ZM999.275 1111.69H997.195V1117H996.787V1111.69H994.707V1111.32H999.275V1111.69ZM1003.46 1112.26C1003.37 1112.16 1003.27 1112.07 1003.16 1112C1003.05 1111.92 1002.93 1111.86 1002.8 1111.81C1002.67 1111.75 1002.53 1111.71 1002.38 1111.69C1002.23 1111.66 1002.07 1111.65 1001.9 1111.65C1001.35 1111.65 1000.94 1111.75 1000.69 1111.97C1000.44 1112.18 1000.31 1112.46 1000.31 1112.82C1000.31 1113.06 1000.37 1113.25 1000.48 1113.39C1000.6 1113.53 1000.78 1113.64 1001.02 1113.73C1001.27 1113.81 1001.58 1113.9 1001.97 1113.98C1002.38 1114.06 1002.74 1114.16 1003.04 1114.28C1003.34 1114.39 1003.57 1114.55 1003.73 1114.74C1003.89 1114.94 1003.97 1115.21 1003.97 1115.54C1003.97 1115.79 1003.93 1116.02 1003.83 1116.21C1003.73 1116.39 1003.6 1116.55 1003.41 1116.67C1003.23 1116.79 1003.02 1116.89 1002.77 1116.95C1002.52 1117.02 1002.25 1117.05 1001.94 1117.05C1001.65 1117.05 1001.37 1117.02 1001.1 1116.95C1000.84 1116.89 1000.58 1116.79 1000.35 1116.67C1000.12 1116.55 999.897 1116.39 999.694 1116.2L999.91 1115.87C1000.03 1116 1000.16 1116.11 1000.3 1116.22C1000.45 1116.31 1000.61 1116.39 1000.78 1116.46C1000.96 1116.53 1001.14 1116.59 1001.34 1116.63C1001.54 1116.67 1001.74 1116.69 1001.96 1116.69C1002.45 1116.69 1002.84 1116.6 1003.12 1116.42C1003.4 1116.23 1003.54 1115.95 1003.54 1115.59C1003.54 1115.34 1003.48 1115.14 1003.35 1114.98C1003.22 1114.83 1003.02 1114.7 1002.76 1114.61C1002.49 1114.51 1002.16 1114.41 1001.76 1114.33C1001.36 1114.24 1001.02 1114.15 1000.73 1114.04C1000.46 1113.93 1000.25 1113.79 1000.1 1113.61C999.963 1113.43 999.894 1113.18 999.894 1112.87C999.894 1112.53 999.977 1112.24 1000.14 1112.01C1000.31 1111.77 1000.55 1111.59 1000.85 1111.46C1001.16 1111.34 1001.51 1111.28 1001.9 1111.28C1002.15 1111.28 1002.37 1111.3 1002.58 1111.35C1002.8 1111.4 1002.99 1111.47 1003.17 1111.58C1003.35 1111.67 1003.52 1111.79 1003.67 1111.94L1003.46 1112.26ZM1007.06 1117V1111.32H1009.42C1009.66 1111.32 1009.88 1111.37 1010.08 1111.47C1010.28 1111.57 1010.46 1111.71 1010.6 1111.88C1010.75 1112.05 1010.86 1112.23 1010.94 1112.44C1011.03 1112.65 1011.07 1112.86 1011.07 1113.08C1011.07 1113.36 1011.02 1113.63 1010.9 1113.87C1010.79 1114.12 1010.64 1114.32 1010.43 1114.49C1010.24 1114.65 1010 1114.75 1009.74 1114.79L1011.15 1117H1010.68L1009.3 1114.86H1007.46V1117H1007.06ZM1007.46 1114.48H1009.46C1009.7 1114.48 1009.92 1114.41 1010.1 1114.28C1010.28 1114.15 1010.42 1113.97 1010.51 1113.76C1010.61 1113.55 1010.66 1113.32 1010.66 1113.08C1010.66 1112.83 1010.61 1112.61 1010.49 1112.4C1010.38 1112.19 1010.22 1112.02 1010.03 1111.89C1009.85 1111.75 1009.64 1111.69 1009.4 1111.69H1007.46V1114.48ZM1016.04 1116.63V1117H1012.25V1111.32H1015.96V1111.69H1012.66V1113.92H1015.55V1114.27H1012.66V1116.63H1016.04ZM1020.39 1112.26C1020.3 1112.16 1020.2 1112.07 1020.09 1112C1019.98 1111.92 1019.86 1111.86 1019.73 1111.81C1019.6 1111.75 1019.46 1111.71 1019.31 1111.69C1019.16 1111.66 1019 1111.65 1018.83 1111.65C1018.28 1111.65 1017.87 1111.75 1017.62 1111.97C1017.37 1112.18 1017.24 1112.46 1017.24 1112.82C1017.24 1113.06 1017.3 1113.25 1017.41 1113.39C1017.53 1113.53 1017.71 1113.64 1017.95 1113.73C1018.2 1113.81 1018.51 1113.9 1018.9 1113.98C1019.31 1114.06 1019.67 1114.16 1019.97 1114.28C1020.27 1114.39 1020.5 1114.55 1020.66 1114.74C1020.82 1114.94 1020.9 1115.21 1020.9 1115.54C1020.9 1115.79 1020.86 1116.02 1020.76 1116.21C1020.66 1116.39 1020.53 1116.55 1020.34 1116.67C1020.16 1116.79 1019.95 1116.89 1019.7 1116.95C1019.45 1117.02 1019.18 1117.05 1018.87 1117.05C1018.58 1117.05 1018.3 1117.02 1018.03 1116.95C1017.77 1116.89 1017.51 1116.79 1017.28 1116.67C1017.05 1116.55 1016.83 1116.39 1016.62 1116.2L1016.84 1115.87C1016.96 1116 1017.09 1116.11 1017.23 1116.22C1017.38 1116.31 1017.54 1116.39 1017.71 1116.46C1017.89 1116.53 1018.07 1116.59 1018.27 1116.63C1018.47 1116.67 1018.67 1116.69 1018.89 1116.69C1019.38 1116.69 1019.77 1116.6 1020.05 1116.42C1020.33 1116.23 1020.47 1115.95 1020.47 1115.59C1020.47 1115.34 1020.41 1115.14 1020.28 1114.98C1020.15 1114.83 1019.95 1114.7 1019.69 1114.61C1019.42 1114.51 1019.09 1114.41 1018.69 1114.33C1018.29 1114.24 1017.95 1114.15 1017.66 1114.04C1017.39 1113.93 1017.18 1113.79 1017.03 1113.61C1016.89 1113.43 1016.82 1113.18 1016.82 1112.87C1016.82 1112.53 1016.91 1112.24 1017.07 1112.01C1017.24 1111.77 1017.48 1111.59 1017.78 1111.46C1018.09 1111.34 1018.44 1111.28 1018.83 1111.28C1019.08 1111.28 1019.3 1111.3 1019.51 1111.35C1019.73 1111.4 1019.92 1111.47 1020.1 1111.58C1020.28 1111.67 1020.45 1111.79 1020.6 1111.94L1020.39 1112.26ZM1025.72 1116.63V1117H1021.93V1111.32H1025.64V1111.69H1022.34V1113.92H1025.23V1114.27H1022.34V1116.63H1025.72ZM1026.83 1117V1111.32H1029.19C1029.44 1111.32 1029.66 1111.37 1029.85 1111.47C1030.06 1111.57 1030.23 1111.71 1030.37 1111.88C1030.52 1112.05 1030.64 1112.23 1030.72 1112.44C1030.8 1112.65 1030.85 1112.86 1030.85 1113.08C1030.85 1113.36 1030.79 1113.63 1030.68 1113.87C1030.57 1114.12 1030.41 1114.32 1030.21 1114.49C1030.01 1114.65 1029.78 1114.75 1029.51 1114.79L1030.93 1117H1030.45L1029.08 1114.86H1027.24V1117H1026.83ZM1027.24 1114.48H1029.23C1029.48 1114.48 1029.69 1114.41 1029.87 1114.28C1030.05 1114.15 1030.19 1113.97 1030.29 1113.76C1030.39 1113.55 1030.44 1113.32 1030.44 1113.08C1030.44 1112.83 1030.38 1112.61 1030.26 1112.4C1030.15 1112.19 1030 1112.02 1029.81 1111.89C1029.62 1111.75 1029.41 1111.69 1029.17 1111.69H1027.24V1114.48ZM1031.69 1111.32L1033.85 1116.49L1036.01 1111.32H1036.44L1034.05 1117H1033.66L1031.26 1111.32H1031.69ZM1041.1 1116.63V1117H1037.31V1111.32H1041.03V1111.69H1037.72V1113.92H1040.61V1114.27H1037.72V1116.63H1041.1ZM1042.21 1117V1111.32H1044.1C1044.7 1111.32 1045.2 1111.45 1045.6 1111.7C1046 1111.95 1046.3 1112.3 1046.49 1112.73C1046.7 1113.15 1046.8 1113.63 1046.8 1114.15C1046.8 1114.73 1046.69 1115.23 1046.47 1115.66C1046.25 1116.08 1045.94 1116.41 1045.53 1116.65C1045.13 1116.88 1044.65 1117 1044.1 1117H1042.21ZM1046.39 1114.15C1046.39 1113.68 1046.3 1113.25 1046.12 1112.88C1045.94 1112.51 1045.68 1112.22 1045.34 1112.01C1045 1111.79 1044.59 1111.69 1044.1 1111.69H1042.62V1116.63H1044.1C1044.6 1116.63 1045.02 1116.52 1045.36 1116.3C1045.7 1116.09 1045.95 1115.79 1046.12 1115.42C1046.3 1115.04 1046.39 1114.62 1046.39 1114.15ZM1049.59 1117C1049.59 1116.85 1049.6 1116.69 1049.63 1116.5C1049.66 1116.32 1049.72 1116.14 1049.8 1115.94C1049.89 1115.75 1050.03 1115.57 1050.21 1115.38C1050.39 1115.2 1050.63 1115.04 1050.93 1114.9C1051.09 1114.83 1051.25 1114.75 1051.41 1114.68C1051.58 1114.61 1051.74 1114.52 1051.89 1114.42C1052.04 1114.33 1052.16 1114.22 1052.25 1114.09C1052.34 1113.95 1052.39 1113.8 1052.39 1113.62C1052.39 1113.47 1052.34 1113.33 1052.26 1113.19C1052.18 1113.05 1052.05 1112.94 1051.88 1112.86C1051.71 1112.77 1051.5 1112.72 1051.24 1112.72C1051.06 1112.72 1050.9 1112.75 1050.75 1112.8C1050.6 1112.85 1050.47 1112.92 1050.36 1112.99C1050.26 1113.07 1050.17 1113.14 1050.09 1113.22C1050.02 1113.29 1049.96 1113.34 1049.93 1113.38L1049.66 1113.11C1049.68 1113.09 1049.73 1113.04 1049.81 1112.96C1049.9 1112.88 1050.01 1112.79 1050.15 1112.7C1050.29 1112.61 1050.46 1112.53 1050.65 1112.46C1050.84 1112.39 1051.06 1112.35 1051.3 1112.35C1051.62 1112.35 1051.9 1112.41 1052.12 1112.53C1052.35 1112.65 1052.52 1112.8 1052.63 1112.98C1052.76 1113.17 1052.82 1113.37 1052.82 1113.58C1052.82 1113.81 1052.77 1114 1052.67 1114.16C1052.57 1114.32 1052.44 1114.46 1052.28 1114.58C1052.13 1114.69 1051.97 1114.78 1051.8 1114.86C1051.64 1114.94 1051.49 1115.01 1051.35 1115.07C1051.09 1115.19 1050.87 1115.32 1050.7 1115.46C1050.53 1115.59 1050.4 1115.74 1050.3 1115.88C1050.2 1116.02 1050.13 1116.16 1050.08 1116.29C1050.04 1116.41 1050.01 1116.53 1049.99 1116.63H1052.91V1117H1049.59ZM1057.72 1114.66C1057.72 1115.13 1057.64 1115.54 1057.47 1115.91C1057.29 1116.27 1057.06 1116.56 1056.75 1116.77C1056.45 1116.98 1056.11 1117.08 1055.73 1117.08C1055.35 1117.08 1055 1116.98 1054.71 1116.77C1054.41 1116.56 1054.17 1116.27 1054 1115.91C1053.83 1115.54 1053.75 1115.13 1053.75 1114.66C1053.75 1114.19 1053.83 1113.77 1054 1113.41C1054.17 1113.04 1054.41 1112.75 1054.71 1112.54C1055 1112.33 1055.35 1112.22 1055.73 1112.22C1056.11 1112.22 1056.45 1112.33 1056.75 1112.54C1057.06 1112.75 1057.29 1113.04 1057.47 1113.41C1057.64 1113.77 1057.72 1114.19 1057.72 1114.66ZM1057.31 1114.66C1057.31 1114.25 1057.25 1113.89 1057.11 1113.58C1056.98 1113.27 1056.79 1113.03 1056.55 1112.86C1056.32 1112.69 1056.04 1112.6 1055.73 1112.6C1055.42 1112.6 1055.15 1112.69 1054.91 1112.86C1054.67 1113.03 1054.48 1113.27 1054.35 1113.58C1054.21 1113.89 1054.15 1114.25 1054.15 1114.66C1054.15 1115.06 1054.21 1115.42 1054.35 1115.73C1054.48 1116.03 1054.67 1116.27 1054.91 1116.45C1055.15 1116.62 1055.42 1116.7 1055.73 1116.7C1056.04 1116.7 1056.32 1116.62 1056.55 1116.45C1056.79 1116.27 1056.98 1116.03 1057.11 1115.73C1057.25 1115.42 1057.31 1115.06 1057.31 1114.66ZM1058.54 1117C1058.54 1116.85 1058.55 1116.69 1058.58 1116.5C1058.61 1116.32 1058.67 1116.14 1058.76 1115.94C1058.85 1115.75 1058.98 1115.57 1059.16 1115.38C1059.35 1115.2 1059.59 1115.04 1059.88 1114.9C1060.04 1114.83 1060.2 1114.75 1060.36 1114.68C1060.53 1114.61 1060.69 1114.52 1060.84 1114.42C1060.99 1114.33 1061.11 1114.22 1061.2 1114.09C1061.29 1113.95 1061.34 1113.8 1061.34 1113.62C1061.34 1113.47 1061.3 1113.33 1061.21 1113.19C1061.13 1113.05 1061.01 1112.94 1060.84 1112.86C1060.67 1112.77 1060.45 1112.72 1060.2 1112.72C1060.01 1112.72 1059.85 1112.75 1059.7 1112.8C1059.56 1112.85 1059.43 1112.92 1059.32 1112.99C1059.21 1113.07 1059.12 1113.14 1059.04 1113.22C1058.97 1113.29 1058.92 1113.34 1058.88 1113.38L1058.61 1113.11C1058.63 1113.09 1058.68 1113.04 1058.76 1112.96C1058.85 1112.88 1058.96 1112.79 1059.1 1112.7C1059.24 1112.61 1059.41 1112.53 1059.6 1112.46C1059.8 1112.39 1060.01 1112.35 1060.25 1112.35C1060.58 1112.35 1060.85 1112.41 1061.08 1112.53C1061.3 1112.65 1061.47 1112.8 1061.59 1112.98C1061.71 1113.17 1061.77 1113.37 1061.77 1113.58C1061.77 1113.81 1061.72 1114 1061.62 1114.16C1061.52 1114.32 1061.39 1114.46 1061.24 1114.58C1061.09 1114.69 1060.93 1114.78 1060.76 1114.86C1060.59 1114.94 1060.44 1115.01 1060.3 1115.07C1060.04 1115.19 1059.82 1115.32 1059.65 1115.46C1059.49 1115.59 1059.35 1115.74 1059.25 1115.88C1059.16 1116.02 1059.08 1116.16 1059.04 1116.29C1058.99 1116.41 1058.96 1116.53 1058.95 1116.63H1061.86V1117H1058.54ZM1062.6 1117C1062.6 1116.85 1062.62 1116.69 1062.64 1116.5C1062.67 1116.32 1062.73 1116.14 1062.82 1115.94C1062.91 1115.75 1063.04 1115.57 1063.23 1115.38C1063.41 1115.2 1063.65 1115.04 1063.95 1114.9C1064.1 1114.83 1064.26 1114.75 1064.43 1114.68C1064.6 1114.61 1064.76 1114.52 1064.91 1114.42C1065.06 1114.33 1065.18 1114.22 1065.27 1114.09C1065.36 1113.95 1065.4 1113.8 1065.4 1113.62C1065.4 1113.47 1065.36 1113.33 1065.27 1113.19C1065.19 1113.05 1065.07 1112.94 1064.9 1112.86C1064.73 1112.77 1064.51 1112.72 1064.26 1112.72C1064.08 1112.72 1063.91 1112.75 1063.76 1112.8C1063.62 1112.85 1063.49 1112.92 1063.38 1112.99C1063.27 1113.07 1063.18 1113.14 1063.11 1113.22C1063.03 1113.29 1062.98 1113.34 1062.95 1113.38L1062.67 1113.11C1062.7 1113.09 1062.75 1113.04 1062.83 1112.96C1062.91 1112.88 1063.02 1112.79 1063.16 1112.7C1063.31 1112.61 1063.47 1112.53 1063.67 1112.46C1063.86 1112.39 1064.07 1112.35 1064.31 1112.35C1064.64 1112.35 1064.91 1112.41 1065.14 1112.53C1065.36 1112.65 1065.53 1112.8 1065.65 1112.98C1065.77 1113.17 1065.83 1113.37 1065.83 1113.58C1065.83 1113.81 1065.78 1114 1065.68 1114.16C1065.58 1114.32 1065.45 1114.46 1065.3 1114.58C1065.15 1114.69 1064.99 1114.78 1064.82 1114.86C1064.65 1114.94 1064.5 1115.01 1064.36 1115.07C1064.1 1115.19 1063.88 1115.32 1063.71 1115.46C1063.55 1115.59 1063.42 1115.74 1063.31 1115.88C1063.22 1116.02 1063.15 1116.16 1063.1 1116.29C1063.06 1116.41 1063.03 1116.53 1063.01 1116.63H1065.92V1117H1062.6ZM1068.9 1115.01V1114.64H1071.2V1115.01H1068.9ZM1074.15 1117C1074.15 1116.85 1074.16 1116.69 1074.19 1116.5C1074.22 1116.32 1074.28 1116.14 1074.37 1115.94C1074.46 1115.75 1074.59 1115.57 1074.77 1115.38C1074.95 1115.2 1075.19 1115.04 1075.49 1114.9C1075.65 1114.83 1075.81 1114.75 1075.97 1114.68C1076.14 1114.61 1076.3 1114.52 1076.45 1114.42C1076.6 1114.33 1076.72 1114.22 1076.81 1114.09C1076.9 1113.95 1076.95 1113.8 1076.95 1113.62C1076.95 1113.47 1076.91 1113.33 1076.82 1113.19C1076.74 1113.05 1076.62 1112.94 1076.45 1112.86C1076.27 1112.77 1076.06 1112.72 1075.81 1112.72C1075.62 1112.72 1075.46 1112.75 1075.31 1112.8C1075.17 1112.85 1075.04 1112.92 1074.93 1112.99C1074.82 1113.07 1074.73 1113.14 1074.65 1113.22C1074.58 1113.29 1074.53 1113.34 1074.49 1113.38L1074.22 1113.11C1074.24 1113.09 1074.29 1113.04 1074.37 1112.96C1074.46 1112.88 1074.57 1112.79 1074.71 1112.7C1074.85 1112.61 1075.02 1112.53 1075.21 1112.46C1075.41 1112.39 1075.62 1112.35 1075.86 1112.35C1076.19 1112.35 1076.46 1112.41 1076.69 1112.53C1076.91 1112.65 1077.08 1112.8 1077.2 1112.98C1077.32 1113.17 1077.38 1113.37 1077.38 1113.58C1077.38 1113.81 1077.33 1114 1077.23 1114.16C1077.13 1114.32 1077 1114.46 1076.85 1114.58C1076.7 1114.69 1076.54 1114.78 1076.37 1114.86C1076.2 1114.94 1076.05 1115.01 1075.91 1115.07C1075.65 1115.19 1075.43 1115.32 1075.26 1115.46C1075.1 1115.59 1074.96 1115.74 1074.86 1115.88C1074.77 1116.02 1074.69 1116.16 1074.65 1116.29C1074.6 1116.41 1074.57 1116.53 1074.56 1116.63H1077.47V1117H1074.15ZM1082.28 1114.66C1082.28 1115.13 1082.2 1115.54 1082.03 1115.91C1081.86 1116.27 1081.62 1116.56 1081.32 1116.77C1081.02 1116.98 1080.68 1117.08 1080.29 1117.08C1079.91 1117.08 1079.57 1116.98 1079.27 1116.77C1078.97 1116.56 1078.73 1116.27 1078.56 1115.91C1078.39 1115.54 1078.31 1115.13 1078.31 1114.66C1078.31 1114.19 1078.39 1113.77 1078.56 1113.41C1078.73 1113.04 1078.97 1112.75 1079.27 1112.54C1079.57 1112.33 1079.91 1112.22 1080.29 1112.22C1080.68 1112.22 1081.02 1112.33 1081.32 1112.54C1081.62 1112.75 1081.86 1113.04 1082.03 1113.41C1082.2 1113.77 1082.28 1114.19 1082.28 1114.66ZM1081.88 1114.66C1081.88 1114.25 1081.81 1113.89 1081.68 1113.58C1081.54 1113.27 1081.36 1113.03 1081.12 1112.86C1080.88 1112.69 1080.61 1112.6 1080.29 1112.6C1079.98 1112.6 1079.71 1112.69 1079.47 1112.86C1079.23 1113.03 1079.04 1113.27 1078.91 1113.58C1078.77 1113.89 1078.71 1114.25 1078.71 1114.66C1078.71 1115.06 1078.77 1115.42 1078.91 1115.73C1079.04 1116.03 1079.23 1116.27 1079.47 1116.45C1079.71 1116.62 1079.98 1116.7 1080.29 1116.7C1080.61 1116.7 1080.88 1116.62 1081.12 1116.45C1081.36 1116.27 1081.54 1116.03 1081.68 1115.73C1081.81 1115.42 1081.88 1115.06 1081.88 1114.66ZM1083.1 1117C1083.1 1116.85 1083.12 1116.69 1083.14 1116.5C1083.17 1116.32 1083.23 1116.14 1083.32 1115.94C1083.41 1115.75 1083.54 1115.57 1083.73 1115.38C1083.91 1115.2 1084.15 1115.04 1084.45 1114.9C1084.6 1114.83 1084.76 1114.75 1084.93 1114.68C1085.1 1114.61 1085.26 1114.52 1085.41 1114.42C1085.56 1114.33 1085.68 1114.22 1085.77 1114.09C1085.86 1113.95 1085.9 1113.8 1085.9 1113.62C1085.9 1113.47 1085.86 1113.33 1085.77 1113.19C1085.69 1113.05 1085.57 1112.94 1085.4 1112.86C1085.23 1112.77 1085.01 1112.72 1084.76 1112.72C1084.58 1112.72 1084.41 1112.75 1084.26 1112.8C1084.12 1112.85 1083.99 1112.92 1083.88 1112.99C1083.77 1113.07 1083.68 1113.14 1083.61 1113.22C1083.53 1113.29 1083.48 1113.34 1083.45 1113.38L1083.17 1113.11C1083.2 1113.09 1083.25 1113.04 1083.33 1112.96C1083.41 1112.88 1083.52 1112.79 1083.66 1112.7C1083.81 1112.61 1083.97 1112.53 1084.17 1112.46C1084.36 1112.39 1084.57 1112.35 1084.81 1112.35C1085.14 1112.35 1085.41 1112.41 1085.64 1112.53C1085.86 1112.65 1086.03 1112.8 1086.15 1112.98C1086.27 1113.17 1086.33 1113.37 1086.33 1113.58C1086.33 1113.81 1086.28 1114 1086.18 1114.16C1086.08 1114.32 1085.95 1114.46 1085.8 1114.58C1085.65 1114.69 1085.49 1114.78 1085.32 1114.86C1085.15 1114.94 1085 1115.01 1084.86 1115.07C1084.6 1115.19 1084.38 1115.32 1084.21 1115.46C1084.05 1115.59 1083.92 1115.74 1083.81 1115.88C1083.72 1116.02 1083.65 1116.16 1083.6 1116.29C1083.56 1116.41 1083.53 1116.53 1083.51 1116.63H1086.42V1117H1083.1ZM1089.44 1115.11C1089.69 1115.14 1089.9 1115.23 1090.08 1115.37C1090.26 1115.5 1090.4 1115.67 1090.49 1115.88C1090.59 1116.09 1090.64 1116.32 1090.64 1116.58C1090.64 1116.9 1090.57 1117.18 1090.41 1117.42C1090.26 1117.66 1090.05 1117.84 1089.78 1117.98C1089.51 1118.11 1089.2 1118.18 1088.85 1118.18C1088.45 1118.18 1088.1 1118.09 1087.8 1117.92C1087.49 1117.75 1087.27 1117.51 1087.13 1117.22L1087.43 1116.98C1087.53 1117.23 1087.7 1117.43 1087.95 1117.58C1088.2 1117.73 1088.5 1117.81 1088.86 1117.81C1089.28 1117.81 1089.61 1117.7 1089.85 1117.48C1090.1 1117.26 1090.23 1116.96 1090.23 1116.57C1090.23 1116.18 1090.1 1115.87 1089.84 1115.64C1089.59 1115.41 1089.24 1115.3 1088.77 1115.3H1088.58V1114.94H1088.79C1089.22 1114.94 1089.55 1114.85 1089.78 1114.65C1090.01 1114.45 1090.12 1114.19 1090.12 1113.87C1090.12 1113.64 1090.07 1113.44 1089.96 1113.28C1089.85 1113.11 1089.7 1112.99 1089.51 1112.9C1089.32 1112.81 1089.11 1112.76 1088.86 1112.76C1088.55 1112.76 1088.27 1112.83 1088.02 1112.98C1087.78 1113.13 1087.6 1113.33 1087.49 1113.58L1087.22 1113.35C1087.31 1113.16 1087.43 1112.99 1087.59 1112.85C1087.75 1112.7 1087.95 1112.59 1088.17 1112.51C1088.4 1112.43 1088.64 1112.39 1088.89 1112.39C1089.21 1112.39 1089.5 1112.45 1089.74 1112.58C1089.99 1112.7 1090.19 1112.87 1090.32 1113.09C1090.47 1113.3 1090.54 1113.55 1090.54 1113.83C1090.54 1114.05 1090.5 1114.25 1090.4 1114.43C1090.32 1114.61 1090.19 1114.77 1090.03 1114.89C1089.86 1115.01 1089.67 1115.08 1089.44 1115.11Z" fill="black" fill-opacity="0.89"/>
</g>
<defs>
<linearGradient id="paint0_linear_52_262" x1="0" y1="1151" x2="1974.18" y2="139.896" gradientUnits="userSpaceOnUse">
<stop stop-color="#BCBCBC"/>
<stop offset="0.37637" stop-color="white"/>
<stop offset="0.942708" stop-color="#BEBEBE"/>
</linearGradient>
<linearGradient id="paint1_linear_52_262" x1="960" y1="713" x2="966.5" y2="482.5" gradientUnits="userSpaceOnUse">
<stop stop-color="#323232"/>
<stop offset="0.0001" stop-color="#A2A2A2"/>
<stop offset="1" stop-color="white" stop-opacity="0"/>
</linearGradient>
<clipPath id="clip0_52_262">
<rect width="1920" height="1151" fill="white"/>
</clipPath>
</defs>
</svg>
