<svg width="64" height="64" viewBox="0 0 64 64" fill="none" xmlns="http://www.w3.org/2000/svg">
<path fill-rule="evenodd" clip-rule="evenodd" d="M28.2732 34.3131L11.0259 28.564C8.6727 27.7796 7.49609 27.3874 7.49609 26.6667C7.49609 25.9459 8.6727 25.5537 11.0259 24.7693L49.5391 11.9316C51.1949 11.3796 52.0228 11.1037 52.4598 11.5407C52.8968 11.9777 52.6208 12.8056 52.0689 14.4614L39.2312 52.9746L39.2312 52.9746C38.4468 55.3278 38.0546 56.5044 37.3338 56.5044C36.6131 56.5044 36.2209 55.3278 35.4365 52.9746L29.6874 35.7273L40.7076 24.7071C41.0981 24.3166 41.0981 23.6834 40.7076 23.2929C40.3171 22.9024 39.6839 22.9024 39.2934 23.2929L28.2732 34.3131Z" fill="#868686"/>
</svg>
