<svg width="519" height="275" viewBox="0 0 519 275" fill="none" xmlns="http://www.w3.org/2000/svg">
<path d="M26.308 241.08L51.024 164.416L75.444 241.08H101.048L62.864 136H39.036L0.556 241.08H26.308ZM95.1662 159.236C95.1662 164.367 96.5968 168.856 99.4582 172.704C102.319 176.552 106.266 179.561 111.298 181.732C116.33 184.001 122.102 185.136 128.614 185.136C131.771 185.136 134.879 184.84 137.938 184.248C140.997 183.755 143.661 183.015 145.93 182.028V185.432C145.93 189.675 144.647 192.931 142.082 195.2C139.517 197.469 135.619 198.604 130.39 198.604C126.049 198.604 121.954 197.864 118.106 196.384C114.357 194.904 110.361 192.783 106.118 190.02L99.0142 205.116C104.145 208.471 109.473 210.987 114.998 212.664C120.622 214.341 126.542 215.18 132.758 215.18C144.401 215.18 153.429 212.368 159.842 206.744C166.354 201.219 169.61 193.177 169.61 182.62V162.344C169.61 159.976 169.955 158.299 170.646 157.312C171.435 156.424 172.767 155.881 174.642 155.684V136C172.669 135.605 170.794 135.309 169.018 135.112C167.341 134.915 165.861 134.816 164.578 134.816C160.138 134.816 156.734 135.704 154.366 137.48C152.097 139.256 150.666 141.673 150.074 144.732L149.63 148.136C146.177 143.696 142.033 140.292 137.198 137.924C132.462 135.655 127.479 134.52 122.25 134.52C117.119 134.52 112.482 135.605 108.338 137.776C104.293 139.947 101.086 142.907 98.7182 146.656C96.3502 150.405 95.1662 154.599 95.1662 159.236ZM142.23 156.276C143.315 157.164 144.203 158.151 144.894 159.236C145.585 160.321 145.93 161.357 145.93 162.344V169.3C143.957 170.089 141.737 170.681 139.27 171.076C136.902 171.569 134.682 171.816 132.61 171.816C128.269 171.816 124.667 170.829 121.806 168.856C118.945 166.981 117.514 164.465 117.514 161.308C117.514 159.532 118.007 157.904 118.994 156.424C119.981 154.944 121.313 153.76 122.99 152.872C124.766 151.984 126.838 151.54 129.206 151.54C131.574 151.54 133.942 151.984 136.31 152.872C138.678 153.76 140.651 154.895 142.23 156.276ZM186.473 244.04H210.153V163.676C210.153 160.42 210.745 158.101 211.929 156.72C213.113 155.339 214.79 154.648 216.961 154.648C218.441 154.648 219.921 154.845 221.401 155.24C222.98 155.733 224.361 156.276 225.545 156.868L228.653 139.108C225.693 137.727 222.289 136.641 218.441 135.852C214.593 135.063 210.992 134.668 207.637 134.668C200.928 134.668 195.698 136.444 191.949 139.996C188.298 143.647 186.473 148.777 186.473 155.388V244.04ZM236.343 136V213.7H260.023V136H236.343ZM236.343 222.58V244.04H260.023V222.58H236.343ZM271.35 159.236C271.35 164.367 272.78 168.856 275.642 172.704C278.503 176.552 282.45 179.561 287.482 181.732C292.514 184.001 298.286 185.136 304.798 185.136C307.955 185.136 311.063 184.84 314.122 184.248C317.18 183.755 319.844 183.015 322.114 182.028V185.432C322.114 189.675 320.831 192.931 318.266 195.2C315.7 197.469 311.803 198.604 306.574 198.604C302.232 198.604 298.138 197.864 294.29 196.384C290.54 194.904 286.544 192.783 282.302 190.02L275.198 205.116C280.328 208.471 285.656 210.987 291.182 212.664C296.806 214.341 302.726 215.18 308.942 215.18C320.584 215.18 329.612 212.368 336.026 206.744C342.538 201.219 345.794 193.177 345.794 182.62V162.344C345.794 159.976 346.139 158.299 346.83 157.312C347.619 156.424 348.951 155.881 350.826 155.684V136C348.852 135.605 346.978 135.309 345.202 135.112C343.524 134.915 342.044 134.816 340.762 134.816C336.322 134.816 332.918 135.704 330.55 137.48C328.28 139.256 326.85 141.673 326.258 144.732L325.814 148.136C322.36 143.696 318.216 140.292 313.382 137.924C308.646 135.655 303.663 134.52 298.434 134.52C293.303 134.52 288.666 135.605 284.522 137.776C280.476 139.947 277.27 142.907 274.902 146.656C272.534 150.405 271.35 154.599 271.35 159.236ZM318.414 156.276C319.499 157.164 320.387 158.151 321.078 159.236C321.768 160.321 322.114 161.357 322.114 162.344V169.3C320.14 170.089 317.92 170.681 315.454 171.076C313.086 171.569 310.866 171.816 308.794 171.816C304.452 171.816 300.851 170.829 297.99 168.856C295.128 166.981 293.698 164.465 293.698 161.308C293.698 159.532 294.191 157.904 295.178 156.424C296.164 154.944 297.496 153.76 299.174 152.872C300.95 151.984 303.022 151.54 305.39 151.54C307.758 151.54 310.126 151.984 312.494 152.872C314.862 153.76 316.835 154.895 318.414 156.276ZM437.841 136H414.161V179.66C414.161 184.791 413.174 188.491 411.201 190.76C409.326 193.128 406.81 194.312 403.653 194.312C401.482 194.312 399.262 193.72 396.993 192.536C394.723 191.352 392.651 189.724 390.777 187.652C389.001 185.58 387.619 183.212 386.633 180.548V136H362.953V213.7H384.265V200.676C386.238 203.735 388.705 206.349 391.665 208.52C394.625 210.691 398.029 212.319 401.877 213.404C405.725 214.588 409.918 215.18 414.457 215.18C419.489 215.18 423.534 214.243 426.593 212.368C429.75 210.592 432.118 208.224 433.697 205.264C435.374 202.304 436.459 199.097 436.953 195.644C437.545 192.289 437.841 188.984 437.841 185.728V136ZM483.322 134.52C476.711 134.52 470.248 135.605 463.934 137.776C457.619 139.947 452.291 143.153 447.95 147.396L456.09 162.344C460.826 158.891 465.414 156.276 469.854 154.5C474.392 152.724 478.635 151.836 482.582 151.836C485.64 151.836 488.008 152.329 489.686 153.316C491.363 154.303 492.202 155.832 492.202 157.904C492.202 159.384 491.708 160.519 490.722 161.308C489.735 162.196 488.206 162.985 486.134 163.676C484.16 164.367 481.694 165.107 478.734 165.896C472.814 167.869 467.88 169.793 463.934 171.668C459.987 173.543 457.027 175.812 455.054 178.476C453.08 181.239 452.094 184.791 452.094 189.132C452.094 194.361 453.376 198.9 455.942 202.748C458.606 206.695 462.355 209.753 467.19 211.924C472.024 214.095 477.796 215.18 484.506 215.18C489.834 215.18 495.014 214.341 500.046 212.664C505.176 210.987 509.962 208.175 514.402 204.228L505.226 189.428C500.786 192.487 496.839 194.707 493.386 196.088C489.932 197.469 486.578 198.16 483.322 198.16C481.644 198.16 480.115 197.963 478.734 197.568C477.352 197.173 476.218 196.483 475.33 195.496C474.54 194.608 474.146 193.424 474.146 191.944C474.146 190.464 474.54 189.28 475.33 188.392C476.218 187.504 477.55 186.715 479.326 186.024C481.2 185.432 483.519 184.692 486.282 183.804C492.695 181.929 498.023 180.005 502.266 178.032C506.508 176.157 509.666 173.789 511.738 170.928C513.908 168.165 514.994 164.465 514.994 159.828C514.994 151.935 512.132 145.719 506.41 141.18C500.786 136.74 493.09 134.52 483.322 134.52Z" fill="url(#paint0_linear_52_261)"/>
<path d="M26.308 33.92L51.024 110.584L75.444 33.92H101.048L62.864 139H39.036L0.556 33.92H26.308ZM95.1662 115.764C95.1662 110.633 96.5968 106.144 99.4582 102.296C102.319 98.448 106.266 95.4387 111.298 93.268C116.33 90.9987 122.102 89.864 128.614 89.864C131.771 89.864 134.879 90.16 137.938 90.752C140.997 91.2453 143.661 91.9853 145.93 92.972V89.568C145.93 85.3253 144.647 82.0693 142.082 79.8C139.517 77.5307 135.619 76.396 130.39 76.396C126.049 76.396 121.954 77.136 118.106 78.616C114.357 80.096 110.361 82.2173 106.118 84.98L99.0142 69.884C104.145 66.5293 109.473 64.0133 114.998 62.336C120.622 60.6587 126.542 59.82 132.758 59.82C144.401 59.82 153.429 62.632 159.842 68.256C166.354 73.7813 169.61 81.8227 169.61 92.38V112.656C169.61 115.024 169.955 116.701 170.646 117.688C171.435 118.576 172.767 119.119 174.642 119.316V139C172.669 139.395 170.794 139.691 169.018 139.888C167.341 140.085 165.861 140.184 164.578 140.184C160.138 140.184 156.734 139.296 154.366 137.52C152.097 135.744 150.666 133.327 150.074 130.268L149.63 126.864C146.177 131.304 142.033 134.708 137.198 137.076C132.462 139.345 127.479 140.48 122.25 140.48C117.119 140.48 112.482 139.395 108.338 137.224C104.293 135.053 101.086 132.093 98.7182 128.344C96.3502 124.595 95.1662 120.401 95.1662 115.764ZM142.23 118.724C143.315 117.836 144.203 116.849 144.894 115.764C145.585 114.679 145.93 113.643 145.93 112.656V105.7C143.957 104.911 141.737 104.319 139.27 103.924C136.902 103.431 134.682 103.184 132.61 103.184C128.269 103.184 124.667 104.171 121.806 106.144C118.945 108.019 117.514 110.535 117.514 113.692C117.514 115.468 118.007 117.096 118.994 118.576C119.981 120.056 121.313 121.24 122.99 122.128C124.766 123.016 126.838 123.46 129.206 123.46C131.574 123.46 133.942 123.016 136.31 122.128C138.678 121.24 140.651 120.105 142.23 118.724ZM186.473 30.96H210.153V111.324C210.153 114.58 210.745 116.899 211.929 118.28C213.113 119.661 214.79 120.352 216.961 120.352C218.441 120.352 219.921 120.155 221.401 119.76C222.98 119.267 224.361 118.724 225.545 118.132L228.653 135.892C225.693 137.273 222.289 138.359 218.441 139.148C214.593 139.937 210.992 140.332 207.637 140.332C200.928 140.332 195.698 138.556 191.949 135.004C188.298 131.353 186.473 126.223 186.473 119.612V30.96ZM236.343 139V61.3H260.023V139H236.343ZM236.343 52.42V30.96H260.023V52.42H236.343ZM271.35 115.764C271.35 110.633 272.78 106.144 275.642 102.296C278.503 98.448 282.45 95.4387 287.482 93.268C292.514 90.9987 298.286 89.864 304.798 89.864C307.955 89.864 311.063 90.16 314.122 90.752C317.18 91.2453 319.844 91.9853 322.114 92.972V89.568C322.114 85.3253 320.831 82.0693 318.266 79.8C315.7 77.5307 311.803 76.396 306.574 76.396C302.232 76.396 298.138 77.136 294.29 78.616C290.54 80.096 286.544 82.2173 282.302 84.98L275.198 69.884C280.328 66.5293 285.656 64.0133 291.182 62.336C296.806 60.6587 302.726 59.82 308.942 59.82C320.584 59.82 329.612 62.632 336.026 68.256C342.538 73.7813 345.794 81.8227 345.794 92.38V112.656C345.794 115.024 346.139 116.701 346.83 117.688C347.619 118.576 348.951 119.119 350.826 119.316V139C348.852 139.395 346.978 139.691 345.202 139.888C343.524 140.085 342.044 140.184 340.762 140.184C336.322 140.184 332.918 139.296 330.55 137.52C328.28 135.744 326.85 133.327 326.258 130.268L325.814 126.864C322.36 131.304 318.216 134.708 313.382 137.076C308.646 139.345 303.663 140.48 298.434 140.48C293.303 140.48 288.666 139.395 284.522 137.224C280.476 135.053 277.27 132.093 274.902 128.344C272.534 124.595 271.35 120.401 271.35 115.764ZM318.414 118.724C319.499 117.836 320.387 116.849 321.078 115.764C321.768 114.679 322.114 113.643 322.114 112.656V105.7C320.14 104.911 317.92 104.319 315.454 103.924C313.086 103.431 310.866 103.184 308.794 103.184C304.452 103.184 300.851 104.171 297.99 106.144C295.128 108.019 293.698 110.535 293.698 113.692C293.698 115.468 294.191 117.096 295.178 118.576C296.164 120.056 297.496 121.24 299.174 122.128C300.95 123.016 303.022 123.46 305.39 123.46C307.758 123.46 310.126 123.016 312.494 122.128C314.862 121.24 316.835 120.105 318.414 118.724ZM437.841 139H414.161V95.34C414.161 90.2093 413.174 86.5093 411.201 84.24C409.326 81.872 406.81 80.688 403.653 80.688C401.482 80.688 399.262 81.28 396.993 82.464C394.723 83.648 392.651 85.276 390.777 87.348C389.001 89.42 387.619 91.788 386.633 94.452V139H362.953V61.3H384.265V74.324C386.238 71.2653 388.705 68.6507 391.665 66.48C394.625 64.3093 398.029 62.6813 401.877 61.596C405.725 60.412 409.918 59.82 414.457 59.82C419.489 59.82 423.534 60.7573 426.593 62.632C429.75 64.408 432.118 66.776 433.697 69.736C435.374 72.696 436.459 75.9027 436.953 79.356C437.545 82.7107 437.841 86.016 437.841 89.272V139ZM483.322 140.48C476.711 140.48 470.248 139.395 463.934 137.224C457.619 135.053 452.291 131.847 447.95 127.604L456.09 112.656C460.826 116.109 465.414 118.724 469.854 120.5C474.392 122.276 478.635 123.164 482.582 123.164C485.64 123.164 488.008 122.671 489.686 121.684C491.363 120.697 492.202 119.168 492.202 117.096C492.202 115.616 491.708 114.481 490.722 113.692C489.735 112.804 488.206 112.015 486.134 111.324C484.16 110.633 481.694 109.893 478.734 109.104C472.814 107.131 467.88 105.207 463.934 103.332C459.987 101.457 457.027 99.188 455.054 96.524C453.08 93.7613 452.094 90.2093 452.094 85.868C452.094 80.6387 453.376 76.1 455.942 72.252C458.606 68.3053 462.355 65.2467 467.19 63.076C472.024 60.9053 477.796 59.82 484.506 59.82C489.834 59.82 495.014 60.6587 500.046 62.336C505.176 64.0133 509.962 66.8253 514.402 70.772L505.226 85.572C500.786 82.5133 496.839 80.2933 493.386 78.912C489.932 77.5307 486.578 76.84 483.322 76.84C481.644 76.84 480.115 77.0373 478.734 77.432C477.352 77.8267 476.218 78.5173 475.33 79.504C474.54 80.392 474.146 81.576 474.146 83.056C474.146 84.536 474.54 85.72 475.33 86.608C476.218 87.496 477.55 88.2853 479.326 88.976C481.2 89.568 483.519 90.308 486.282 91.196C492.695 93.0707 498.023 94.9947 502.266 96.968C506.508 98.8427 509.666 101.211 511.738 104.072C513.908 106.835 514.994 110.535 514.994 115.172C514.994 123.065 512.132 129.281 506.41 133.82C500.786 138.26 493.09 140.48 483.322 140.48Z" fill="black"/>
<defs>
<linearGradient id="paint0_linear_52_261" x1="260" y1="275" x2="266.5" y2="44.5" gradientUnits="userSpaceOnUse">
<stop stop-color="#323232"/>
<stop offset="0.0001" stop-color="#A2A2A2"/>
<stop offset="1" stop-color="white" stop-opacity="0"/>
</linearGradient>
</defs>
</svg>
